<svg style="background: transparent;" xmlns:xlink="http://www.w3.org/1999/xlink" xmlns="http://www.w3.org/2000/svg"
  version="1.1" viewBox="0 0 1024 1024" height="1024px" width="1024px">
  <title>数据展示/空状态/无网络</title>
  <defs id="out-line">
    <linearGradient id="linearGradient-1" y2="6.16297582e-31%" x2="50%" y1="68.8479973%" x1="50%">
      <stop offset="0%" stop-opacity="0" stop-color="#95A4F7"></stop>
      <stop offset="100%" stop-opacity="0.44536884" stop-color="#C5D6FF"></stop>
    </linearGradient>
    <linearGradient id="linearGradient-2" y2="6.16297582e-31%" x2="50%" y1="100%" x1="50%">
      <stop offset="0%" stop-opacity="0" stop-color="#95A4F7"></stop>
      <stop offset="100%" stop-opacity="0.44536884" stop-color="#C5D6FF"></stop>
    </linearGradient>
    <linearGradient id="linearGradient-3" y2="6.16297582e-31%" x2="50%" y1="100%" x1="50%">
      <stop offset="0%" stop-opacity="0" stop-color="#95A4F7"></stop>
      <stop offset="100%" stop-opacity="0.44536884" stop-color="#C5D6FF"></stop>
    </linearGradient>
  </defs>
  <g fill-rule="evenodd" fill="none" stroke-width="1" stroke="none" id="数据展示/空状态/无网络">
    <polygon points="300.949369 801.119184 207.109001 731.428571 308.825397 694.564571" fill="#E2E9FF" id="路径-27">
    </polygon>
    <g id="编组-2">
      <path fill="url(#linearGradient-1)" id="形状结合"
        d="M512,668.546032 C794.769792,668.546032 1024,807.516845 1024,978.946032 C1024,994.248007 1022.17359,1009.29137 1018.64573,1024.00036 L5.35426779,1024.00036 C1.82640598,1009.29137 0,994.248007 0,978.946032 C0,807.516845 229.230208,668.546032 512,668.546032 Z">
      </path>
      <path fill="url(#linearGradient-2)" id="形状结合"
        d="M81.2698413,219.428571 L81.2701844,218.982128 C78.6017097,219.277126 75.8899694,219.428571 73.1428571,219.428571 C32.7471726,219.428571 0,186.681399 0,146.285714 C0,105.89003 32.7471726,73.1428571 73.1428571,73.1428571 C77.9010399,73.1428571 82.5531045,73.5972025 87.0580337,74.4648757 C101.736788,31.1630512 142.721197,0 190.984127,0 C250.413735,0 298.807094,47.2517978 300.644307,106.235495 C303.314117,105.850043 306.046488,105.650794 308.825397,105.650794 C340.244263,105.650794 365.714286,131.120817 365.714286,162.539683 C365.714286,193.958548 340.244263,219.428571 308.825397,219.428571 C306.065865,219.428571 303.352224,219.232091 300.6977,218.852357 L300.698413,219.428571 L81.2698413,219.428571 Z">
      </path>
      <path fill="url(#linearGradient-3)" id="形状结合备份"
        d="M715.174603,260.063492 L715.174956,259.909501 C713.833719,260.01154 712.478482,260.063492 711.111111,260.063492 C681.93645,260.063492 658.285714,236.412756 658.285714,207.238095 C658.285714,178.063434 681.93645,154.412698 711.111111,154.412698 C714.236818,154.412698 717.299118,154.684173 720.275721,155.204831 C731.394618,126.223994 759.485221,105.650794 792.380952,105.650794 C833.936994,105.650794 867.82482,138.482322 869.520736,179.621683 C872.164992,179.078452 874.906379,178.793651 877.714286,178.793651 C900.156333,178.793651 918.349206,196.986524 918.349206,219.428571 C918.349206,241.870618 900.156333,260.063492 877.714286,260.063492 C874.930765,260.063492 872.212613,259.783616 869.586435,259.25047 L869.587302,260.063492 L715.174603,260.063492 Z">
      </path>
      <path transform="translate(130.434000, 572.620710) rotate(18.000000) translate(-130.434000, -572.620710)"
        fill-rule="nonzero" fill="#DEE7FD" id="路径-24"
        d="M179.328753,487.381315 C181.572881,487.400084 183.377118,489.234299 183.358908,491.478427 C182.902506,546.83936 171.658727,581.263298 149.399252,593.573161 L148.325587,594.131302 L148.157021,594.619551 C146.950688,597.963284 145.562173,601.440574 143.988783,605.040057 L143.022542,607.214319 C129.524853,637.101939 109.145194,654.131765 82.1228055,657.822379 C79.8992431,658.126065 77.8505038,656.569697 77.5468182,654.346135 C77.2431326,652.122572 78.7995002,650.073833 81.0230626,649.770147 C105.090346,646.48313 123.208196,631.343337 135.615853,603.869349 L136.598591,601.663053 L138.288762,597.674667 L137.350484,597.879803 C132.487164,598.799642 127.235237,598.935136 121.5932,598.278526 L119.69807,598.030308 L118.870219,597.819216 C104.510248,592.496136 99.0233068,581.736995 103.132719,569.883294 C106.624951,559.809863 116.693155,550.620679 128.317246,546.843782 C149.496227,539.962314 158.231544,553.656607 152.559301,579.641905 L152.177778,581.290667 L152.817016,580.691915 C166.970719,566.909066 174.475365,538.521931 175.190318,494.804592 L175.231921,491.411471 C175.25041,489.167342 177.084624,487.363105 179.328753,487.381315 Z M142.019048,587.881651 L142.132781,587.568238 C151.10133,561.137923 145.80145,549.708037 130.828622,554.573004 C121.530966,557.593995 113.432072,564.985804 110.811362,572.545307 C108.318616,579.735695 111.075818,585.746107 120.20106,589.607281 L121.295238,590.043429 L122.542418,590.205277 C128.945515,590.934991 134.771845,590.418524 140.017752,588.636991 L142.019048,587.881651 Z">
      </path>
      <path transform="translate(857.159295, 455.591543) rotate(-71.000000) translate(-857.159295, -455.591543)"
        fill="#DEE6FC" id="形状结合"
        d="M809.929937,393.855828 L873.842888,507.409788 L811.922508,532.957958 L809.929937,393.855828 Z M830.301359,378.225128 L904.388653,407.599293 L884.790177,443.576664 L830.301359,378.225128 Z">
      </path>
      <g transform="translate(300.742857, 671.707636)" id="编组">
        <rect height="111" width="419" y="18.3004372" x="0" fill="#BCD0FF" id="矩形"></rect>
        <polygon points="419 18.3004372 433.932709 -3.28201578e-13 433.932709 111 419 129.300437" fill="#9EB8FE"
          id="矩形"></polygon>
        <polygon points="14.9327088 2.4848039e-14 433.932709 2.4848039e-14 419 18.3004372 0 18.3004372" fill="#ABC3FC"
          id="矩形"></polygon>
      </g>
    </g>
    <polygon
      points="409.478724 676.639128 469.261514 517.444446 613.13226 672.701472 595.528463 689.014237 478.069 562.258 431.946688 685.076581"
      fill-rule="nonzero" fill="#ABC3FC" id="路径-30"></polygon>
    <path fill="#9EB8FE" id="Fill-1"
      d="M546.40977,502.725449 C568.164583,478.994069 568.164583,443.399243 545.424994,420.659476 C522.685405,397.917464 483.566913,397.90519 460.365183,415.654717 L384.271588,340.567752 C374.387931,330.678556 359.555716,333.644417 352.635362,345.514594 C312.098012,420.659476 322.977662,516.567632 386.247871,579.84458 C449.51808,643.121528 545.424994,654.000093 620.559629,613.460669 C632.424055,607.526703 634.400337,591.71027 625.501457,581.81883 L546.40977,502.725449 Z">
    </path>
    <path fill="#BCD0FF" id="形状结合"
      d="M339.91054,350.141813 C346.830894,338.271636 361.663109,335.305775 371.546766,345.194971 L371.546766,345.194971 L447.640361,420.281936 C470.842091,402.532409 509.960582,402.544683 532.700171,425.286695 C555.43976,448.026462 555.43976,483.621288 533.684948,507.352668 L533.684948,507.352668 L612.776635,586.446049 C621.675515,596.337489 619.699232,612.153922 607.834806,618.087888 C532.700171,658.627312 436.793257,647.748747 373.523048,584.471799 C310.25284,521.194851 299.37319,425.286695 339.91054,350.141813 Z M460.280365,255.893791 C491.998457,249.190915 524.934328,249.282889 556.518353,256.730529 C586.717016,263.855139 614.897966,277.803762 638.913891,297.517575 C664.4917,318.521266 683.904648,346.438701 695.251212,377.546058 C705.123035,404.593105 708.461311,434.141393 706.432426,462.808077 C705.319667,478.459338 702.94891,494.29679 698.442014,509.355828 C696.739359,515.042505 691.126407,518.0754 685.453125,516.760846 C679.980944,515.506861 676.484022,509.028312 678.077188,503.71626 C678.280524,503.027577 678.481625,502.336652 678.680491,501.645726 C680.374208,495.656208 681.708178,489.520878 682.796358,483.387791 C683.196325,481.144526 683.560542,478.894531 683.886772,476.635564 C683.978385,475.996233 684.065529,475.361389 684.157141,474.722058 L684.095,475.156 L684.069997,475.361389 L684.069997,475.361389 C684.029777,475.655257 683.991791,475.949124 683.95604,476.236262 C683.940471,476.357182 683.931473,476.42894 683.927757,476.461041 L683.926989,476.475182 C683.935257,476.425525 683.983342,476.075965 684.036471,475.683075 L684.072255,475.417546 C684.161675,474.751751 684.243636,474.123975 684.157141,474.722058 L684.096,475.151 L684.224671,474.154429 C684.274822,473.752054 684.323484,473.349596 684.370408,472.946971 L684.505716,471.738516 C685.122426,466.188678 685.531331,460.625381 685.732432,455.05311 C685.96705,448.69121 685.922361,442.333797 685.593896,435.98087 C685.412905,432.584567 685.151474,429.190507 684.811837,425.803176 C684.646487,424.060159 684.423041,422.337332 684.208534,420.585342 L684.242,420.863 L684.16161,420.295961 C684.102397,419.87647 684.041508,419.458101 683.978943,419.040573 L683.786222,417.790233 C682.646649,410.548974 681.087,403.379499 679.11621,396.319943 C678.066016,392.564717 676.895162,388.84987 675.603646,385.175402 C674.917669,383.185626 674.189236,381.207066 673.420584,379.23748 C673.072009,378.362606 672.714496,377.485489 672.356983,376.608373 C672.349386,376.589593 672.341936,376.570517 672.334646,376.551229 L672.292906,376.433625 C672.286298,376.413824 672.279872,376.39398 672.273639,376.374176 L672.268,376.357 L672.181229,376.167466 L672.181229,376.167466 L672.01958,375.847906 C668.696945,368.214075 664.824634,360.833733 660.438399,353.765204 C658.15702,350.099709 655.741574,346.512728 653.194295,343.008748 C652.613336,342.223605 652.027909,341.449679 651.446951,340.669023 L651.446951,340.669023 L651.363,340.555 L651.521805,340.760155 L651.521805,340.760155 L651.879,341.217 L651.859045,341.190906 C651.587609,340.835447 650.621856,339.551719 651.285609,340.450832 L651.36,340.551 L651.125189,340.247289 C650.416122,339.346992 649.69911,338.45168 648.973491,337.562682 L647.878525,336.234088 C643.212983,330.639384 638.212272,325.336306 632.898737,320.356257 C630.253142,317.872963 627.53381,315.474912 624.742976,313.162106 C624.00784,312.549695 623.263766,311.94177 622.512989,311.340575 C622.426198,311.269735 622.129728,311.040288 621.810822,310.793592 L621.570361,310.607545 C620.960055,310.135115 620.439297,309.729143 621.326494,310.384944 C622.792296,311.466198 620.388022,309.673829 620.108715,309.465205 C619.427207,308.951497 618.743463,308.442276 618.053017,307.939785 C612.279184,303.71796 606.266265,299.834868 600.045542,296.306212 C596.881553,294.5116 593.663937,292.806719 590.397164,291.193811 C588.652054,290.34137 586.906945,289.511362 585.159601,288.70603 C584.379776,288.351594 583.550793,287.983699 582.811188,287.653939 C582.688293,287.599353 582.512826,287.527817 582.319298,287.45138 L582.171304,287.393321 C582.146253,287.383554 582.121056,287.373758 582.095778,287.363956 L581.867938,287.276207 C581.842786,287.26658 581.817757,287.257018 581.792918,287.247544 L581.646696,287.191946 C581.337148,287.074589 581.082424,286.980077 581.030607,286.960104 L581.023,286.957 C581.082513,286.977324 581.411011,287.096111 582.199418,287.379746 L582.375469,287.443072 C575.553677,284.964264 568.935221,282.211778 561.952548,280.143487 C554.949765,278.068467 547.839729,276.377045 540.653721,275.080438 C538.709744,274.723759 536.763534,274.398485 534.81062,274.106861 C533.936948,273.974508 533.06551,273.871318 532.191838,273.729992 L532.581,273.788 L531.724837,273.682884 C528.611496,273.301529 525.4935,272.994949 522.368263,272.75925 L520.492231,272.626306 C513.017978,272.132787 505.525849,272.040814 498.042659,272.354871 C494.199396,272.518629 490.36507,272.783334 486.539683,273.15123 C484.613582,273.341907 482.689716,273.555018 480.770319,273.79056 L480.770319,273.79056 L480.5,273.839 L480.451489,273.84119 C480.385923,273.844456 480.3178,273.849892 480.24916,273.857921 L480.180423,273.866831 L480.180423,273.866831 L479.599,273.951 L479.411771,273.965535 L479.411771,273.965535 L479.493,273.966 L478.822992,274.064239 L478.822992,274.064239 L477.46556,274.268376 C469.687421,275.477496 461.978551,277.108349 454.374699,279.154207 L454.374699,279.154207 L454.352355,279.113828 C448.636618,280.648222 443.137624,277.213783 441.365701,271.711054 C439.618357,266.291325 443.403524,260.099913 448.741638,258.670954 C452.560322,257.639052 456.408054,256.714826 460.280365,255.893791 Z M489.937541,313.559862 C511.811245,307.695443 534.788616,307.289376 556.852993,312.379799 C575.664692,316.844296 593.206725,325.544456 608.146615,337.816213 C624.143064,350.882157 636.110679,368.383432 643.165627,387.742297 C649.168501,404.200361 651.214324,422.309616 649.964847,439.745831 C649.269447,449.469011 647.827052,459.322312 645.023019,468.664103 C643.31368,474.353532 637.680938,477.384454 631.985385,476.069783 C626.48948,474.817929 622.985559,468.336557 624.580494,463.026274 C625.574243,459.661075 626.399751,456.251007 627.050286,452.802801 C627.33069,451.37147 627.581931,449.933408 627.812983,448.49086 C627.931874,447.732568 628.037306,446.978764 628.156197,446.222716 L628.074,446.76 L628.063394,446.85205 C628.044534,447.001946 628.025342,447.153754 628.005901,447.308553 C627.795038,449.038265 628.445573,444.421213 628.156197,446.222716 L628.075,446.758 L628.118893,446.407012 L628.118893,446.407012 L628.1719,445.966961 C628.602599,442.366199 628.883002,438.751975 629.01311,435.122048 C629.156676,431.395652 629.134244,427.671499 628.94357,423.954076 C628.849354,421.964122 628.703544,419.978655 628.50614,417.995431 C628.405195,416.961194 628.286304,415.94266 628.16517,414.92637 L628.2,415.229 L628.136849,414.798773 L628.136849,414.798773 L628.01936,414.02001 C627.350879,409.712556 626.431156,405.447728 625.264678,401.24796 C624.650034,399.044877 623.96585,396.866472 623.212125,394.710501 C622.830777,393.611203 622.426996,392.516392 621.99854,391.423824 C621.785433,390.871932 621.561111,390.329013 621.345761,389.774877 L621.385,389.875 L620.938298,388.872692 C619.236977,385.112862 617.320161,381.455857 615.198234,377.917257 L614.555514,376.859245 C613.200605,374.678597 611.771669,372.556278 610.270951,370.487803 C609.889602,369.960588 609.494794,369.444591 609.108959,368.924107 L609.532,369.49 L609.440193,369.414283 C608.67099,368.766907 608.506476,368.461915 608.609491,368.46583 L608.624,368.468 L608.408325,368.175251 C608.186411,367.868755 607.970979,367.560431 607.759783,367.284928 L607.549917,367.021648 C604.797477,363.732728 601.849878,360.616554 598.720576,357.684344 C597.152561,356.223848 595.546411,354.810465 593.902125,353.446438 C593.078861,352.750964 592.224192,352.118306 591.409901,351.436293 C593.050419,352.813611 592.440261,352.322245 591.642718,351.683366 L591.50045,351.569442 C591.452659,351.53119 591.40464,351.492778 591.356812,351.454557 L591.214322,351.340813 C590.90866,351.097124 590.628834,350.876273 590.490178,350.77447 C587.028879,348.257302 583.426257,345.942045 579.7025,343.837675 C576.781819,342.188727 573.729508,340.849212 570.719716,339.409569 L569.523,338.829 C569.588855,338.868581 569.526855,338.842952 569.261303,338.709866 L569.095761,338.626332 C568.940139,338.547367 568.739283,338.444424 568.485247,338.313067 L568.353,338.244 L568.339021,338.23867 L568.339021,338.23867 L568.293449,338.220037 C567.788723,338.018125 567.290727,337.825187 566.781515,337.627762 C565.877494,337.284511 564.964501,336.945748 564.047021,336.615959 C562.003442,335.889076 559.939673,335.21828 557.857959,334.605813 C553.665368,333.369664 549.407724,332.360104 545.107458,331.581622 C544.044169,331.388684 542.938258,331.20472 541.852536,331.038703 C541.821036,331.033452 541.786838,331.028316 541.750474,331.023306 L541.721,331.019 L541.855027,331.027291 L541.855027,331.027291 L542.04994,331.038703 C541.612511,331.011782 541.172839,330.924286 540.73541,330.872687 C538.532561,330.605714 536.322983,330.401559 534.106675,330.257977 C529.631437,329.96184 525.144984,329.907996 520.66526,330.096448 C518.401845,330.190673 516.138429,330.345472 513.877256,330.560845 C512.742184,330.670775 511.611597,330.805383 510.478768,330.93326 L511.124,330.859 L511.024463,330.892313 C510.545999,331.019323 509.947504,331.035123 509.447589,331.090202 L509.206858,331.121711 C504.617216,331.841864 500.070196,332.806554 495.581499,334.009052 L495.581499,334.009052 C489.829866,335.534608 484.313772,332.106593 482.534893,326.603372 C480.78069,321.187645 484.576229,314.984463 489.937541,313.559862 Z M507.830244,362.376344 C520.24927,359.098853 533.280994,358.87406 545.80628,361.717699 C568.372144,366.865473 586.86616,382.873027 595.100292,404.388025 C600.517365,418.635446 600.73441,435.757976 596.318907,450.344835 C594.600637,456.043353 588.912258,459.080315 583.171878,457.763024 C577.634978,456.508676 574.108002,450.018884 575.710967,444.698019 C576.246797,442.879438 576.687669,441.033883 577.035844,439.170343 C577.15341,438.547665 577.268715,437.918243 577.370455,437.291069 L577.370455,437.291069 L577.427,436.963 L577.5232,435.945166 C577.632536,434.754965 577.731292,433.571885 577.79749,432.383302 L577.852023,431.192418 C577.92211,429.21873 577.906284,427.249537 577.802283,425.282593 C577.754805,424.387914 577.689239,423.468509 577.603326,422.591813 L577.603326,422.591813 L577.57,422.301 L577.570633,422.23313 C577.569828,422.130859 577.563602,422.011958 577.550111,421.890566 L577.53413,421.768866 L577.53413,421.768866 L577.524195,421.708374 L577.524195,421.708374 L577.421,421.106 L577.406629,420.753002 C577.407846,420.822572 577.409169,420.889718 577.410589,420.954503 L577.413,421.062 L577.349804,420.690367 C577.046298,418.995862 576.678691,417.312499 576.249453,415.644373 L575.984534,414.645359 C575.668011,413.541622 575.322096,412.446877 574.942268,411.361124 C574.747832,410.808131 574.544352,410.255139 574.331829,409.708891 C574.20522,409.376196 574.071828,409.043501 573.933914,408.713055 L573.933914,408.713055 L574.456178,409.942676 C574.406439,408.836691 573.015996,406.907962 572.509558,405.968325 C571.890077,404.848852 571.245725,403.751859 570.5652,402.679594 C569.884674,401.609576 569.138583,400.586765 568.410579,399.545971 L568.779,400.069 C567.917885,399.449332 567.802822,399.009831 568.027715,399.135246 L568.042,399.145 L567.872489,398.891821 C566.62642,397.41589 565.303943,396.00437 563.910752,394.664338 L563.20829,394.000312 C562.423764,393.27198 561.61889,392.563881 560.798189,391.880508 L560.798189,391.880508 L560.755,391.846 L560.784508,391.86119 L560.784508,391.86119 L560.947408,391.945698 C560.585666,391.716409 560.239752,391.460144 559.914184,391.1814 C558.003739,389.798919 556.009641,388.533331 553.945456,387.389131 C553.004929,386.865362 552.046315,386.36632 551.078657,385.896502 C550.328045,385.532336 546.918634,384.206053 550.08613,385.372732 C545.853759,383.805921 541.668866,382.418944 537.212668,381.609687 C536.516316,381.483803 535.575789,381.501786 534.924655,381.232034 L535.084,381.287 L534.667501,381.246187 C534.298056,381.210387 533.929951,381.175752 533.561511,381.143698 L532.453511,381.056695 C530.203933,380.912827 527.949834,380.885852 525.695734,380.973521 C524.330162,381.022976 522.96685,381.115141 521.60806,381.250017 C521.158144,381.351174 520.699185,381.402877 520.237965,381.400629 L520.395,381.396 L520.339705,381.405125 C518.364986,381.72112 516.408538,382.132906 514.466091,382.617831 L513.496015,382.866283 L513.50958,382.866283 C507.714939,384.381393 502.164474,380.973521 500.367073,375.445846 C498.601324,370.028319 502.426736,363.790296 507.830244,362.376344 Z M480.111703,273.970059 L479.791463,273.970386 C479.733236,273.97003 479.672532,273.969458 479.609275,273.968655 L479.493,273.966 L479.599,273.951 L479.753188,273.939457 C479.980474,273.918146 480.207062,273.888984 480.432672,273.85197 L480.5,273.839 L480.516126,273.83863 C481.067613,273.822442 481.375836,273.958518 480.111703,273.970059 Z">
    </path>
    <path fill-rule="nonzero" fill="#FFFFFF" id="形状"
      d="M489.237383,422.709044 C472.991916,422.709044 460.356553,427.672948 451.331294,437.600756 C442.306035,447.077301 438.019037,459.712693 438.019037,475.506934 L455.843924,475.506934 C455.843924,464.450965 458.32587,455.876949 463.289762,449.559253 C468.704918,442.113396 477.053283,438.503284 488.334857,438.503284 C497.811379,438.503284 505.257218,440.985236 510.446742,446.400405 C515.410634,451.364309 518.118212,458.358901 518.118212,467.384181 C518.118212,473.701878 515.861897,479.56831 511.349268,485.20911 C509.995479,487.014166 507.287901,489.72175 503.677797,493.331862 C491.493697,504.162199 484.047859,512.736215 480.889018,519.505176 C478.18144,525.145976 476.827651,531.689304 476.827651,539.13516 L476.827651,544.324697 L494.87817,544.324697 L494.87817,539.13516 C494.87817,533.043096 496.231959,527.627928 499.165168,522.664024 C501.421483,518.602648 504.805955,514.541271 509.769847,510.254263 C519.697632,501.454615 525.789682,495.588183 528.045997,492.880598 C533.686784,485.434742 536.619993,476.635094 536.619993,466.481653 C536.619993,452.943733 532.332995,442.339028 523.984631,434.66754 C515.185003,426.544788 503.677797,422.709044 489.237383,422.709044 Z M485.85291,560.118937 C482.017175,560.118937 478.858335,561.247097 476.150757,563.954681 C473.443179,566.436633 472.315022,569.595482 472.315022,573.431226 C472.315022,577.26697 473.443179,580.425818 476.150757,583.133402 C478.858335,585.615354 482.017175,586.969146 485.85291,586.969146 C489.688646,586.969146 492.847486,585.615354 495.555064,583.133402 C498.262642,580.65145 499.616431,577.492602 499.616431,573.431226 C499.616431,569.595482 498.262642,566.436633 495.780696,563.954681 C493.073118,561.247097 489.688646,560.118937 485.85291,560.118937 Z">
    </path>
  </g>
</svg>